<svg width="206" height="39" viewBox="0 0 206 39" fill="none" xmlns="http://www.w3.org/2000/svg">
<path d="M6.26402 2V32.48H14.544V38H0.744019V2H6.26402Z" fill="#E9E9E9"/>
<path d="M26.559 38H21.039V2H26.559V38Z" fill="#E9E9E9"/>
<path d="M35.9903 38V2H50.7503V7.52H41.5103V20.12H49.4543V25.64H41.5103V38H35.9903Z" fill="#E9E9E9"/>
<path d="M72.4046 2V7.52H63.1646V16.52H71.1086V22.04H63.1646V32.48H72.4046V38H57.6446V2H72.4046Z" fill="#E9E9E9"/>
<path d="M97.1348 28.208V29.888C97.1348 32.544 96.3428 34.688 94.7588 36.32C93.1748 37.952 91.0468 38.768 88.3748 38.768C85.7188 38.768 83.5908 37.952 81.9908 36.32C80.4068 34.688 79.6148 32.544 79.6148 29.888V10.112C79.6148 7.44 80.4068 5.296 81.9908 3.68C83.5908 2.048 85.7188 1.232 88.3748 1.232C91.0468 1.232 93.1748 2.048 94.7588 3.68C96.3428 5.296 97.1348 7.44 97.1348 10.112V11.792H91.6148V10.112C91.6148 9.104 91.3268 8.296 90.7508 7.688C90.1748 7.064 89.3828 6.752 88.3748 6.752C87.3668 6.752 86.5748 7.064 85.9988 7.688C85.4228 8.296 85.1348 9.104 85.1348 10.112V29.888C85.1348 30.896 85.4228 31.712 85.9988 32.336C86.5748 32.944 87.3668 33.248 88.3748 33.248C89.3828 33.248 90.1748 32.944 90.7508 32.336C91.3268 31.712 91.6148 30.896 91.6148 29.888V28.208H97.1348Z" fill="#E9E9E9"/>
<path d="M104.61 38V2H113.49C116.098 2 118.17 2.792 119.706 4.376C121.242 5.944 122.01 8.032 122.01 10.64V16.088C122.01 17.784 121.674 19.272 121.002 20.552C120.33 21.832 119.37 22.848 118.122 23.6L117.738 21.848C119.098 22.344 120.146 23.096 120.882 24.104C121.634 25.112 122.01 26.32 122.01 27.728V38H116.49V27.728C116.49 26.832 116.226 26.112 115.698 25.568C115.17 25.008 114.434 24.728 113.49 24.728H110.13V38H104.61ZM110.13 19.208H113.49C114.434 19.208 115.17 18.928 115.698 18.368C116.226 17.792 116.49 17.032 116.49 16.088V10.64C116.49 9.696 116.226 8.944 115.698 8.384C115.17 7.808 114.434 7.52 113.49 7.52H110.13V19.208Z" fill="#E9E9E9"/>
<path d="M169.946 38V2H184.706V7.52H175.466V20.12H183.41V25.64H175.466V38H169.946Z" fill="#E9E9E9"/>
<path d="M194.072 38V7.52H188.48V2H205.16V7.52H199.592V38H194.072Z" fill="#E9E9E9"/>
<path d="M145.898 0L164.243 38H157.581L145.898 13.8008L134.215 38H127.553L145.898 0Z" fill="#E9E9E9"/>
</svg>
