<svg version="1.1" id="Layer_2_00000179641200170636392640000004410980874146997938_"
	 xmlns="http://www.w3.org/2000/svg" xmlns:xlink="http://www.w3.org/1999/xlink" x="0px" y="0px" width="23.9px" height="32px"
	 viewBox="0 0 23.9 32" style="enable-background:new 0 0 23.9 32;" xml:space="preserve">
<style type="text/css">
	.st0{fill:#E9E9E6;}
</style>
<g>
	<path class="st0" d="M11.3,9c0-0.1,0-0.2,0.1-0.2C11,7.3,11,5.7,11.7,4c0,1.1,0,2.2,0.3,3.2c0.2-0.4,0.4-0.8,0.7-1.2
		c-0.1-1.1,0-2.3,0.5-3.5c0,0.9,0,1.7,0.2,2.5c0.3-0.4,0.7-0.8,1.1-1.2C14.5,3,14.7,2.3,15,1.5c0,0.6,0,1.2,0.1,1.7
		c1-0.7,2.1-1.3,3.5-1.7c-1.2,0.7-2.1,1.5-2.8,2.2c0.5,0.1,1.1,0.1,1.6,0.1c-0.7,0.2-1.4,0.3-2.1,0.3c-0.5,0.5-0.8,1-1.1,1.5
		c0.9,0.1,1.8,0.1,2.7,0c-1,0.6-2.1,0.8-3.1,0.8c-0.2,0.6-0.4,1.1-0.5,1.7c0.8,0,1.7-0.2,2.6-0.5C15,8.6,14.1,9,13.1,9.2
		c0,0.4,0,0.8,0,1.2c4.6,2.8,2.8-7.5,9.6-9.5C16.9-2.2,6.1,3.4,11.3,9L11.3,9z M12.6,12.9c-0.3,0.1-1.1,0.3-1.4,0.1
		C11,11.6,12.2,7,13.9,5C12.6,7.4,12.3,10.7,12.6,12.9L12.6,12.9L12.6,12.9z"/>
	<g>
		<g>
			<path class="st0" d="M23.9,18.5c0-0.3,0-0.6-0.1-0.9c-0.1-0.4-0.2-0.8-0.3-1.2c-0.2-0.5-0.3-1-0.5-1.5c-0.3-0.7-0.6-1.4-1.2-2
				c-0.4-0.5-0.9-0.9-1.5-1.2c-0.7-0.4-1.4-0.5-2.2-0.5c-0.3,0-0.6,0-1,0c-0.4,0-0.8,0.1-1.2,0.2c-0.4,0.1-0.7,0.2-1.1,0.3
				c-0.3,0.1-0.6,0.2-0.9,0.2c-0.3,0.1-0.7,0.1-1.1,0.2c-0.2,0-0.4,0-0.5,0.1h-1.2c-1,0-1.3-0.2-2.2-0.7c-0.8-0.4-1.6-0.5-2.5-0.6
				c-0.2,0-0.4,0-0.7,0c-0.3,0-0.7,0.1-1,0.1c-0.6,0.1-1.1,0.4-1.5,0.7c-0.4,0.3-0.8,0.6-1.2,1c-0.4,0.4-0.7,0.9-1,1.4
				c-0.3,0.6-0.6,1.2-0.8,1.8c-0.1,0.3-0.2,0.6-0.2,0.8c-0.1,0.3-0.1,0.6-0.1,0.8c0,0.4-0.1,0.8-0.1,1.2c0,0.6,0,1.2,0.1,1.7
				c0,0.4,0.1,0.9,0.2,1.3c0.1,0.5,0.2,0.9,0.4,1.4c0.3,0.9,0.7,1.8,1.1,2.7c0.5,1,1,2,1.6,2.9c0.3,0.4,0.6,0.8,0.9,1.1
				c0.3,0.3,0.6,0.5,0.9,0.7c0.5,0.4,1.1,0.7,1.6,0.9c0.2,0.1,0.5,0.2,0.7,0.2C8,32,8.4,32,8.9,31.9c0.2,0,0.5-0.1,0.7-0.1
				c0.3-0.1,0.6-0.1,0.8-0.2c0.4-0.1,0.7-0.1,1.1-0.2c0.3,0,0.6,0,0.9,0c0.3,0,0.5,0.1,0.8,0.1c0.3,0,0.5,0.1,0.8,0.2
				c0.3,0.1,0.7,0.1,1,0.2c0.4,0.1,0.8,0,1.2-0.1c0.6-0.1,1.1-0.4,1.6-0.7c0.9-0.5,1.6-1.1,2.3-1.8c0.6-0.6,1.1-1.2,1.5-2
				c0.3-0.5,0.5-1,0.8-1.6c0.3-0.5,0.5-1.1,0.6-1.6c0.1-0.5,0.3-0.9,0.4-1.4c0.1-0.4,0.2-0.7,0.2-1.1c0.1-0.4,0.1-0.8,0.1-1.1
				c0-0.5,0.1-0.9,0.1-1.4C23.9,18.9,23.9,18.7,23.9,18.5z M22,23.1h-3.2l-1.7,2.5c-0.2,0.2-0.4,0.3-0.7,0.3
				c-0.3-0.1-0.6-0.2-0.6-0.4l-1.3-2.8l-1.2,2.1c-0.1,0.2-0.4,0.4-0.7,0.3c-0.4,0-0.6-0.2-0.7-0.5l-1-5l-1.3,7.6
				c-0.1,0.3-0.3,0.5-0.7,0.5s-0.7-0.2-0.8-0.4l-1.4-5.9l-0.9,1.5c-0.1,0.2-0.4,0.3-0.6,0.3H2v-1.2h2.7l1.7-2.7
				c0.2-0.2,0.5-0.4,0.8-0.4c0.3,0.1,0.6,0.2,0.6,0.5l1,4.2l1.3-7.8c0.1-0.3,0.4-0.5,0.7-0.5c0.4,0,0.7,0.2,0.8,0.5l1.4,6.7l1-1.7
				c0.1-0.2,0.4-0.4,0.7-0.4c0.3,0,0.6,0.2,0.7,0.4l1.3,3l1-1.6c0.1-0.2,0.4-0.3,0.7-0.3H22V23.1z"/>
		</g>
	</g>
</g>
</svg>
